Coordinates
version=1
nRows=9
nColumns=36
inDegrees=yes

Units are S.I. units (second, meters, Newtons, ...)
If the header above contains a line with 'inDegrees', this indicates whether rotational values are in degrees (yes) or radians (no).

endheader
time	pelvis_tilt	pelvis_list	pelvis_rotation	pelvis_tx	pelvis_ty	pelvis_tz	hip_flexion_r	hip_adduction_r	hip_rotation_r	knee_angle_r	knee_angle_r_beta	ankle_angle_r	subtalar_angle_r	mtp_angle_r	hip_flexion_l	hip_adduction_l	hip_rotation_l	knee_angle_l	knee_angle_l_beta	ankle_angle_l	subtalar_angle_l	mtp_angle_l	lumbar_extension	lumbar_bending	lumbar_rotation	arm_flex_r	arm_add_r	arm_rot_r	elbow_flex_r	pro_sup_r	arm_flex_l	arm_add_l	arm_rot_l	elbow_flex_l	pro_sup_l
      4.01666670	     -5.06464782	      2.08366975	     -3.79509493	      1.03950428	      0.92131749	     -0.01176828	      5.42262816	     -6.59300251	      0.29891813	      2.26818271	      0.03958726	      5.78924313	     -1.45323945	     -7.49999987	      5.99740708	     -0.30781304	      3.37719780	      6.68301281	      0.11664058	      5.40874967	     -3.58183722	     -7.49999987	      1.37492067	     -4.99130474	     -7.35548735	    -31.52889916	    -14.59582627	    117.51679799	     35.07538379	     34.28456304	   -219.29581310	   -172.79708916	    -74.45259361	     41.15553187	     39.04693430
      4.03333330	     -4.99654227	      1.88925132	     -3.81527900	      1.03919817	      0.92093016	     -0.01460725	      5.05338534	     -6.46219925	     -0.45215863	      1.85607922	      0.03239469	      5.71638817	     -0.69762806	     -7.49999987	      5.41884351	     -0.30313381	      3.28915250	      5.99373949	      0.10461049	      5.99309169	     -3.63946403	     -7.49999987	      1.03003632	     -4.21340997	     -7.63530316	    -32.62622259	    -16.56287192	    117.74674521	     36.33422399	     38.19012581	   -220.71078120	   -170.88885474	    -75.57097036	     44.34662440	     42.04424449
      4.05000000	     -5.14816660	      1.79404026	     -3.94194339	      1.03855123	      0.91523989	     -0.01345970	      5.07523264	     -6.30069740	     -0.48642299	      1.72678391	      0.03013806	      6.08654126	     -0.76001652	     -7.49999987	      5.40108989	     -0.32804571	      3.32342143	      5.90787998	      0.10311196	      6.78196827	     -3.93661023	     -7.49999987	      1.05839589	     -4.07648298	     -8.36659193	    -32.43428748	    -19.42318233	    118.36512947	     38.41200612	     40.39639817	   -222.93885211	   -169.49133675	    -78.65474549	     45.62080360	     43.63631897
      4.06666670	     -5.23265195	      1.69799619	     -4.10122308	      1.03955139	      0.91010434	     -0.01293077	      5.01991411	     -6.16926911	     -0.17137224	      1.73754742	      0.03032592	      6.80081274	     -0.88659668	     -7.49999987	      5.41776384	     -0.39533577	      3.15388586	      5.97089585	      0.10421179	      7.60021813	     -4.18222221	     -7.49999987	      1.14919608	     -4.00136719	     -8.26162851	    -32.47255022	    -21.55144720	    118.06742153	     39.32334115	     41.76048635	   -223.99258873	   -168.38683498	    -77.99174186	     45.08281533	     44.89219025
      4.08333330	     -5.26752492	      1.65429264	     -4.25416157	      1.03618184	      0.90673775	     -0.01371717	      5.08953964	     -6.07154923	      0.02661734	      1.99019740	      0.03473550	      7.81211330	     -1.07361014	     -7.49999987	      5.77259123	     -0.43606098	      3.01033426	      6.50729364	      0.11357370	      8.27944817	     -4.55862448	     -7.49999987	      1.03152737	     -3.92171476	     -8.23652532	    -31.11124060	    -23.83608762	    118.00766216	     39.10897756	     41.83152851	   -223.69016548	   -166.76874524	    -77.60568532	     44.84503100	     45.01810431
      4.10000000	     -5.24452482	      1.69004698	     -4.47859791	      1.03396743	      0.90694511	     -0.01341590	      5.20566854	     -6.08590844	      0.19486941	      2.31392986	      0.04038569	      8.70062324	     -1.10114863	     -7.49999987	      6.33898883	     -0.42182356	      2.81743000	      7.48919757	      0.13071116	      8.68770214	     -5.05650341	     -7.49999987	      1.24886503	     -4.18597935	     -8.88000539	    -26.43877131	    -27.44642962	    120.36869886	     42.68732651	     44.48960879	   -222.98529650	   -165.76691911	    -76.80545977	     44.05319772	     46.44272105
      4.11666670	     -5.14290690	      1.71732490	     -4.90251626	      1.03187512	      0.90750609	     -0.01000030	      5.44385799	     -6.05040191	      0.52575880	      2.64085089	      0.04609154	      9.53537830	     -1.09017309	     -7.49999987	      6.98565653	     -0.51062178	      2.56380977	      8.74173233	      0.15257201	      9.09473069	     -5.56278630	     -7.49999987	      1.13059466	     -4.11395173	     -8.57695254	    -23.81176768	    -29.25178356	    119.36669273	     42.32243762	     46.07533677	   -220.99743912	   -163.16949371	    -75.97233151	     44.45365702	     47.89057547
      4.13333330	     -5.33030034	      1.76587875	     -5.31632136	      1.03105520	      0.90548034	     -0.00844736	      6.05989111	     -5.99119454	      1.14102927	      3.17876748	      0.05547996	     10.48539864	     -0.84132772	     -7.49999987	      8.38078769	     -0.69719729	      2.51660769	     10.94003745	      0.19093967	      9.14512601	     -6.69314987	     -7.49999987	      1.35617374	     -4.13267638	     -8.66221983	    -21.41321792	    -30.44270859	    118.35373861	     40.67598479	     47.05745761	   -220.37096372	   -161.67700473	    -77.76330527	     41.68584974	     48.42049452
      4.15000000	     -5.08127397	      1.76172728	     -5.81843164	      1.02792455	      0.90442435	     -0.00808884	      6.40026562	     -5.93419285	      1.72642507	      3.84775545	      0.06715600	     11.17133303	     -0.87749806	     -7.49999987	      9.64293894	     -0.93982402	      2.35195168	     13.72853134	      0.23960807	      9.12150407	     -7.62512967	     -7.49999987	      1.01290698	     -4.03502566	     -8.82550006	    -18.94349973	    -30.78850432	    118.27573846	     38.23007664	     46.55717779	   -218.63241306	   -160.13225078	    -79.70560232	     39.17263638	     48.11851048
